<svg xmlns="http://www.w3.org/2000/svg" width="120" height="120" viewBox="0 0 120 120"><rect width="120" height="120" fill="#f8f6f1"/><g fill="none" stroke="#e6e2d7" stroke-width="1.6" stroke-linejoin="round"><polygon points="0.00,-26.00 4.21,-10.16 18.38,-18.38 10.16,-4.21 26.00,-0.00 10.16,4.21 18.38,18.38 4.21,10.16 0.00,26.00 -4.21,10.16 -18.38,18.38 -10.16,4.21 -26.00,0.00 -10.16,-4.21 -18.38,-18.38 -4.21,-10.16"/><polygon points="5.74,-13.86 4.60,-4.60 13.86,-5.74 6.50,-0.00 13.86,5.74 4.60,4.60 5.74,13.86 0.00,6.50 -5.74,13.86 -4.60,4.60 -13.86,5.74 -6.50,0.00 -13.86,-5.74 -4.60,-4.60 -5.74,-13.86 -0.00,-6.50"/><polygon points="120.00,-26.00 124.21,-10.16 138.38,-18.38 130.16,-4.21 146.00,-0.00 130.16,4.21 138.38,18.38 124.21,10.16 120.00,26.00 115.79,10.16 101.62,18.38 109.84,4.21 94.00,0.00 109.84,-4.21 101.62,-18.38 115.79,-10.16"/><polygon points="125.74,-13.86 124.60,-4.60 133.86,-5.74 126.50,-0.00 133.86,5.74 124.60,4.60 125.74,13.86 120.00,6.50 114.26,13.86 115.40,4.60 106.14,5.74 113.50,0.00 106.14,-5.74 115.40,-4.60 114.26,-13.86 120.00,-6.50"/><polygon points="0.00,94.00 4.21,109.84 18.38,101.62 10.16,115.79 26.00,120.00 10.16,124.21 18.38,138.38 4.21,130.16 0.00,146.00 -4.21,130.16 -18.38,138.38 -10.16,124.21 -26.00,120.00 -10.16,115.79 -18.38,101.62 -4.21,109.84"/><polygon points="5.74,106.14 4.60,115.40 13.86,114.26 6.50,120.00 13.86,125.74 4.60,124.60 5.74,133.86 0.00,126.50 -5.74,133.86 -4.60,124.60 -13.86,125.74 -6.50,120.00 -13.86,114.26 -4.60,115.40 -5.74,106.14 -0.00,113.50"/><polygon points="120.00,94.00 124.21,109.84 138.38,101.62 130.16,115.79 146.00,120.00 130.16,124.21 138.38,138.38 124.21,130.16 120.00,146.00 115.79,130.16 101.62,138.38 109.84,124.21 94.00,120.00 109.84,115.79 101.62,101.62 115.79,109.84"/><polygon points="125.74,106.14 124.60,115.40 133.86,114.26 126.50,120.00 133.86,125.74 124.60,124.60 125.74,133.86 120.00,126.50 114.26,133.86 115.40,124.60 106.14,125.74 113.50,120.00 106.14,114.26 115.40,115.40 114.26,106.14 120.00,113.50"/><polygon points="60.00,34.00 64.21,49.84 78.38,41.62 70.16,55.79 86.00,60.00 70.16,64.21 78.38,78.38 64.21,70.16 60.00,86.00 55.79,70.16 41.62,78.38 49.84,64.21 34.00,60.00 49.84,55.79 41.62,41.62 55.79,49.84"/><polygon points="65.74,46.14 64.60,55.40 73.86,54.26 66.50,60.00 73.86,65.74 64.60,64.60 65.74,73.86 60.00,66.50 54.26,73.86 55.40,64.60 46.14,65.74 53.50,60.00 46.14,54.26 55.40,55.40 54.26,46.14 60.00,53.50"/><polygon points="66.51,-15.71 75.71,-6.51 75.71,6.51 66.51,15.71 53.49,15.71 44.29,6.51 44.29,-6.51 53.49,-15.71"/><polygon points="63.44,-8.31 68.31,-3.44 68.31,3.44 63.44,8.31 56.56,8.31 51.69,3.44 51.69,-3.44 56.56,-8.31"/><polygon points="6.51,44.29 15.71,53.49 15.71,66.51 6.51,75.71 -6.51,75.71 -15.71,66.51 -15.71,53.49 -6.51,44.29"/><polygon points="3.44,51.69 8.31,56.56 8.31,63.44 3.44,68.31 -3.44,68.31 -8.31,63.44 -8.31,56.56 -3.44,51.69"/><polygon points="126.51,44.29 135.71,53.49 135.71,66.51 126.51,75.71 113.49,75.71 104.29,66.51 104.29,53.49 113.49,44.29"/><polygon points="123.44,51.69 128.31,56.56 128.31,63.44 123.44,68.31 116.56,68.31 111.69,63.44 111.69,56.56 116.56,51.69"/><polygon points="66.51,104.29 75.71,113.49 75.71,126.51 66.51,135.71 53.49,135.71 44.29,126.51 44.29,113.49 53.49,104.29"/><polygon points="63.44,111.69 68.31,116.56 68.31,123.44 63.44,128.31 56.56,128.31 51.69,123.44 51.69,116.56 56.56,111.69"/><path d="M21 30 L30 21 L39 30 L30 39 Z"/><path d="M81 30 L90 21 L99 30 L90 39 Z"/><path d="M21 90 L30 81 L39 90 L30 99 Z"/><path d="M81 90 L90 81 L99 90 L90 99 Z"/><path d="M0 60.0 H120 M60.0 0 V120" opacity=".5"/><path d="M0 0 L120 120 M120 0 L0 120" opacity=".5"/></g></svg>