<svg xmlns="http://www.w3.org/2000/svg" width="240" height="240" viewBox="0 0 240 240"><rect width="240" height="240" fill="#ece1cb"/><g stroke="#d9c9a8" stroke-width="1" opacity=".6"><path d="M0 120.0 H240 M120.0 0 V240 M0 0 L240 240 M240 0 L0 240" fill="none"/></g><polygon points="120.0,62.0 129.6,96.9 161.0,79.0 143.1,110.4 178.0,120.0 143.1,129.6 161.0,161.0 129.6,143.1 120.0,178.0 110.4,143.1 79.0,161.0 96.9,129.6 62.0,120.0 96.9,110.4 79.0,79.0 110.4,96.9" fill="#1c4e9b" stroke="#ece1cb" stroke-width="2"/><polygon points="131.5,92.3 129.2,110.8 147.7,108.5 133.0,120.0 147.7,131.5 129.2,129.2 131.5,147.7 120.0,133.0 108.5,147.7 110.8,129.2 92.3,131.5 107.0,120.0 92.3,108.5 110.8,110.8 108.5,92.3 120.0,107.0" fill="#123a7a" stroke="#ece1cb" stroke-width="1.5"/><circle cx="120.0" cy="120.0" r="8" fill="#2e7d5b" stroke="#ece1cb" stroke-width="1.5"/><polygon points="0.0,-58.0 9.6,-23.1 41.0,-41.0 23.1,-9.6 58.0,-0.0 23.1,9.6 41.0,41.0 9.6,23.1 0.0,58.0 -9.6,23.1 -41.0,41.0 -23.1,9.6 -58.0,0.0 -23.1,-9.6 -41.0,-41.0 -9.6,-23.1" fill="#bf5a1f" stroke="#ece1cb" stroke-width="2"/><polygon points="11.5,-27.7 9.2,-9.2 27.7,-11.5 13.0,-0.0 27.7,11.5 9.2,9.2 11.5,27.7 0.0,13.0 -11.5,27.7 -9.2,9.2 -27.7,11.5 -13.0,0.0 -27.7,-11.5 -9.2,-9.2 -11.5,-27.7 -0.0,-13.0" fill="#e0a33b" stroke="#ece1cb" stroke-width="1.5"/><circle cx="0" cy="0" r="8" fill="#1c4e9b" stroke="#ece1cb" stroke-width="1.5"/><polygon points="240.0,-58.0 249.6,-23.1 281.0,-41.0 263.1,-9.6 298.0,-0.0 263.1,9.6 281.0,41.0 249.6,23.1 240.0,58.0 230.4,23.1 199.0,41.0 216.9,9.6 182.0,0.0 216.9,-9.6 199.0,-41.0 230.4,-23.1" fill="#bf5a1f" stroke="#ece1cb" stroke-width="2"/><polygon points="251.5,-27.7 249.2,-9.2 267.7,-11.5 253.0,-0.0 267.7,11.5 249.2,9.2 251.5,27.7 240.0,13.0 228.5,27.7 230.8,9.2 212.3,11.5 227.0,0.0 212.3,-11.5 230.8,-9.2 228.5,-27.7 240.0,-13.0" fill="#e0a33b" stroke="#ece1cb" stroke-width="1.5"/><circle cx="240" cy="0" r="8" fill="#1c4e9b" stroke="#ece1cb" stroke-width="1.5"/><polygon points="0.0,182.0 9.6,216.9 41.0,199.0 23.1,230.4 58.0,240.0 23.1,249.6 41.0,281.0 9.6,263.1 0.0,298.0 -9.6,263.1 -41.0,281.0 -23.1,249.6 -58.0,240.0 -23.1,230.4 -41.0,199.0 -9.6,216.9" fill="#bf5a1f" stroke="#ece1cb" stroke-width="2"/><polygon points="11.5,212.3 9.2,230.8 27.7,228.5 13.0,240.0 27.7,251.5 9.2,249.2 11.5,267.7 0.0,253.0 -11.5,267.7 -9.2,249.2 -27.7,251.5 -13.0,240.0 -27.7,228.5 -9.2,230.8 -11.5,212.3 -0.0,227.0" fill="#e0a33b" stroke="#ece1cb" stroke-width="1.5"/><circle cx="0" cy="240" r="8" fill="#1c4e9b" stroke="#ece1cb" stroke-width="1.5"/><polygon points="240.0,182.0 249.6,216.9 281.0,199.0 263.1,230.4 298.0,240.0 263.1,249.6 281.0,281.0 249.6,263.1 240.0,298.0 230.4,263.1 199.0,281.0 216.9,249.6 182.0,240.0 216.9,230.4 199.0,199.0 230.4,216.9" fill="#bf5a1f" stroke="#ece1cb" stroke-width="2"/><polygon points="251.5,212.3 249.2,230.8 267.7,228.5 253.0,240.0 267.7,251.5 249.2,249.2 251.5,267.7 240.0,253.0 228.5,267.7 230.8,249.2 212.3,251.5 227.0,240.0 212.3,228.5 230.8,230.8 228.5,212.3 240.0,227.0" fill="#e0a33b" stroke="#ece1cb" stroke-width="1.5"/><circle cx="240" cy="240" r="8" fill="#1c4e9b" stroke="#ece1cb" stroke-width="1.5"/><polygon points="133.8,-33.3 130.6,-10.6 153.3,-13.8 135.0,-0.0 153.3,13.8 130.6,10.6 133.8,33.3 120.0,15.0 106.2,33.3 109.4,10.6 86.7,13.8 105.0,0.0 86.7,-13.8 109.4,-10.6 106.2,-33.3 120.0,-15.0" fill="#2e7d5b" stroke="#ece1cb" stroke-width="2"/><circle cx="120.0" cy="0" r="6.5" fill="#bf5a1f" stroke="#ece1cb" stroke-width="1.5"/><polygon points="13.8,86.7 10.6,109.4 33.3,106.2 15.0,120.0 33.3,133.8 10.6,130.6 13.8,153.3 0.0,135.0 -13.8,153.3 -10.6,130.6 -33.3,133.8 -15.0,120.0 -33.3,106.2 -10.6,109.4 -13.8,86.7 -0.0,105.0" fill="#2e7d5b" stroke="#ece1cb" stroke-width="2"/><circle cx="0" cy="120.0" r="6.5" fill="#bf5a1f" stroke="#ece1cb" stroke-width="1.5"/><polygon points="253.8,86.7 250.6,109.4 273.3,106.2 255.0,120.0 273.3,133.8 250.6,130.6 253.8,153.3 240.0,135.0 226.2,153.3 229.4,130.6 206.7,133.8 225.0,120.0 206.7,106.2 229.4,109.4 226.2,86.7 240.0,105.0" fill="#2e7d5b" stroke="#ece1cb" stroke-width="2"/><circle cx="240" cy="120.0" r="6.5" fill="#bf5a1f" stroke="#ece1cb" stroke-width="1.5"/><polygon points="133.8,206.7 130.6,229.4 153.3,226.2 135.0,240.0 153.3,253.8 130.6,250.6 133.8,273.3 120.0,255.0 106.2,273.3 109.4,250.6 86.7,253.8 105.0,240.0 86.7,226.2 109.4,229.4 106.2,206.7 120.0,225.0" fill="#2e7d5b" stroke="#ece1cb" stroke-width="2"/><circle cx="120.0" cy="240" r="6.5" fill="#bf5a1f" stroke="#ece1cb" stroke-width="1.5"/><rect x="49" y="49" width="22" height="22" fill="#e0a33b" stroke="#ece1cb" stroke-width="2" transform="rotate(45 60 60)"/><rect x="55" y="55" width="10" height="10" fill="#1c4e9b" transform="rotate(45 60 60)"/><rect x="169" y="49" width="22" height="22" fill="#e0a33b" stroke="#ece1cb" stroke-width="2" transform="rotate(45 180 60)"/><rect x="175" y="55" width="10" height="10" fill="#1c4e9b" transform="rotate(45 180 60)"/><rect x="49" y="169" width="22" height="22" fill="#e0a33b" stroke="#ece1cb" stroke-width="2" transform="rotate(45 60 180)"/><rect x="55" y="175" width="10" height="10" fill="#1c4e9b" transform="rotate(45 60 180)"/><rect x="169" y="169" width="22" height="22" fill="#e0a33b" stroke="#ece1cb" stroke-width="2" transform="rotate(45 180 180)"/><rect x="175" y="175" width="10" height="10" fill="#1c4e9b" transform="rotate(45 180 180)"/></svg>